<?xml version="1.0" encoding="UTF-8" standalone="no"?>
<!-- Created with Inkscape (http://www.inkscape.org/) -->

<svg
   version="1.1"
   id="svg2"
   width="1405.3333"
   height="1388"
   viewBox="0 0 1405.3333 1388"
   sodipodi:docname="shopee.eps"
   xmlns:inkscape="http://www.inkscape.org/namespaces/inkscape"
   xmlns:sodipodi="http://sodipodi.sourceforge.net/DTD/sodipodi-0.dtd"
   xmlns="http://www.w3.org/2000/svg"
   xmlns:svg="http://www.w3.org/2000/svg">
  <defs
     id="defs6">
    <clipPath
       clipPathUnits="userSpaceOnUse"
       id="clipPath18">
      <path
         d="M 8906.18,0 H 1633.82 C 731.488,0 0,731.48 0,1633.83 V 8776.18 C 0,9678.51 731.488,10410 1633.82,10410 H 8906.18 C 9808.51,10410 10540,9678.51 10540,8776.18 V 1633.83 C 10540,731.48 9808.51,0 8906.18,0 Z"
         id="path16" />
    </clipPath>
    <linearGradient
       x1="0"
       y1="0"
       x2="1"
       y2="0"
       gradientUnits="userSpaceOnUse"
       gradientTransform="matrix(10540,0,0,-10540,0,5205)"
       spreadMethod="pad"
       id="linearGradient28">
      <stop
         style="stop-opacity:1;stop-color:#ff6633"
         offset="0"
         id="stop20" />
      <stop
         style="stop-opacity:1;stop-color:#ff6633"
         offset="0.25076871"
         id="stop22" />
      <stop
         style="stop-opacity:1;stop-color:#f53d2d"
         offset="0.994382"
         id="stop24" />
      <stop
         style="stop-opacity:1;stop-color:#f53d2d"
         offset="1"
         id="stop26" />
    </linearGradient>
  </defs>
  <sodipodi:namedview
     id="namedview4"
     pagecolor="#ffffff"
     bordercolor="#000000"
     borderopacity="0.25"
     inkscape:showpageshadow="2"
     inkscape:pageopacity="0.0"
     inkscape:pagecheckerboard="0"
     inkscape:deskcolor="#d1d1d1" />
  <g
     id="g8"
     inkscape:groupmode="layer"
     inkscape:label="ink_ext_XXXXXX"
     transform="matrix(1.3333333,0,0,-1.3333333,0,1388)">
    <g
       id="g10"
       transform="scale(0.1)">
      <g
         id="g12">
        <g
           id="g14"
           clip-path="url(#clipPath18)">
          <path
             d="M 8906.18,0 H 1633.82 C 731.488,0 0,731.48 0,1633.83 V 8776.18 C 0,9678.51 731.488,10410 1633.82,10410 H 8906.18 C 9808.51,10410 10540,9678.51 10540,8776.18 V 1633.83 C 10540,731.48 9808.51,0 8906.18,0"
             style="fill:url(#linearGradient28);fill-opacity:1;fill-rule:nonzero;stroke:none"
             id="path30" />
        </g>
      </g>
      <path
         d="m 6597.52,3239.42 c -47.42,-392.53 -285.44,-707.17 -654.11,-864.5 -205.36,-87.92 -480.76,-135.34 -699,-120.27 -340.4,12.88 -660.07,95.78 -954.63,247.14 -105.51,54.01 -262.21,162.03 -382.79,263.15 -30.46,25.43 -34.23,41.76 -14.13,70.66 10.99,16.32 31.09,45.84 75.68,111.16 64.37,94.52 72.23,106.13 79.76,117.44 20.41,31.41 54.01,34.23 86.98,8.16 3.46,-2.51 3.46,-2.51 6.28,-4.7 5.34,-4.09 5.34,-4.09 18.22,-14.14 12.87,-10.04 20.41,-16.01 23.55,-18.21 317.79,-249.02 688.02,-392.53 1061.7,-406.98 520.02,7.23 894.02,240.86 960.91,599.79 73.79,395.03 -236.46,736.37 -843.14,926.67 -189.99,59.35 -669.5,251.54 -758.05,303.34 -415.14,243.69 -609.52,562.73 -581.88,957.14 42.39,546.4 549.53,954 1190.77,956.83 286.7,0.31 572.77,-59.04 847.54,-174.91 97.34,-41.14 270.99,-135.66 330.97,-180.25 34.54,-25.44 41.46,-54.95 21.67,-86.98 -11.31,-18.53 -29.52,-47.73 -67.83,-108.97 l -0.62,-0.62 c -50.56,-80.4 -52.13,-82.91 -63.75,-101.75 -20.1,-30.78 -43.97,-33.6 -80.07,-10.68 -294.24,197.52 -620.2,297.06 -978.81,304.29 -446.22,-8.79 -780.66,-274.46 -802.64,-636.52 -5.96,-326.9 239.28,-565.24 768.73,-747.37 1074.89,-345.43 1486.25,-750.2 1408.69,-1388.92 z M 5270.16,8882.07 c 699.64,0 1270.22,-664.16 1296.91,-1495.37 H 3973.25 c 26.69,831.21 596.95,1495.37 1296.91,1495.37 z m 3621.6,-1651.75 c 0,86.35 -69.39,156.38 -155.12,156.38 H 7055.37 c -41.14,1097.5 -824.62,1972.68 -1785.21,1972.68 -960.59,0 -1744.08,-875.18 -1785.21,-1972.68 H 1801.48 c -84.47,-1.57 -152.62,-70.97 -152.62,-156.38 0,-4.08 0.32,-8.17 0.63,-12.25 h -1.25 l 239.91,-5290.32 c 0,-14.75 0.63,-29.52 1.88,-44.59 0,-3.44 0.32,-6.59 0.63,-10.04 l 0.63,-11.3 0.63,-0.33 c 36.42,-368.34 303.66,-664.77 666.66,-678.59 l 0.95,-0.63 h 5366.93 l 0.31,0.32 c 369.61,10.04 669.18,310.56 700.59,683.31 l 0.31,0.31 0.31,5.02 c 0.32,3.77 0.63,7.54 0.63,11.62 0.63,9.43 1.26,18.84 1.26,27.95 l 261.89,5311.35 h -0.31 c 0.31,2.83 0.31,5.34 0.31,8.17"
         style="fill:#ffffff;fill-opacity:1;fill-rule:evenodd;stroke:none"
         id="path32" />
    </g>
  </g>
</svg>
